{
	"patcher" : 	{
		"fileversion" : 1,
		"appversion" : 		{
			"major" : 8,
			"minor" : 2,
			"revision" : 2,
			"architecture" : "x64",
			"modernui" : 1
		}
,
		"classnamespace" : "box",
		"rect" : [ 59.0, 107.0, 640.0, 480.0 ],
		"bglocked" : 0,
		"openinpresentation" : 0,
		"default_fontsize" : 12.0,
		"default_fontface" : 0,
		"default_fontname" : "Arial",
		"gridonopen" : 1,
		"gridsize" : [ 15.0, 15.0 ],
		"gridsnaponopen" : 1,
		"objectsnaponopen" : 1,
		"statusbarvisible" : 2,
		"toolbarvisible" : 1,
		"lefttoolbarpinned" : 0,
		"toptoolbarpinned" : 0,
		"righttoolbarpinned" : 0,
		"bottomtoolbarpinned" : 0,
		"toolbars_unpinned_last_save" : 0,
		"tallnewobj" : 0,
		"boxanimatetime" : 200,
		"enablehscroll" : 1,
		"enablevscroll" : 1,
		"devicewidth" : 0.0,
		"description" : "",
		"digest" : "",
		"tags" : "",
		"style" : "",
		"subpatcher_template" : "",
		"assistshowspatchername" : 0,
		"boxes" : [ 			{
				"box" : 				{
					"comment" : "",
					"id" : "obj-2",
					"index" : 3,
					"maxclass" : "inlet",
					"numinlets" : 0,
					"numoutlets" : 1,
					"outlettype" : [ "" ],
					"patching_rect" : [ 133.00001199999997, 40.0, 30.0, 30.0 ]
				}

			}
, 			{
				"box" : 				{
					"id" : "obj-1",
					"maxclass" : "message",
					"numinlets" : 2,
					"numoutlets" : 1,
					"outlettype" : [ "" ],
					"patching_rect" : [ 50.0, 265.0, 55.0, 22.0 ],
					"text" : "$2 $3 $4"
				}

			}
, 			{
				"box" : 				{
					"id" : "obj-15",
					"maxclass" : "newobj",
					"numinlets" : 1,
					"numoutlets" : 1,
					"outlettype" : [ "" ],
					"patching_rect" : [ 50.0, 155.0, 117.0, 22.0 ],
					"text" : "prepend /source/xyz"
				}

			}
, 			{
				"box" : 				{
					"id" : "obj-20",
					"maxclass" : "newobj",
					"numinlets" : 1,
					"numoutlets" : 1,
					"outlettype" : [ "" ],
					"patching_rect" : [ 173.799999999999955, 100.0, 77.0, 22.0 ],
					"text" : "loadmess #1"
				}

			}
, 			{
				"box" : 				{
					"id" : "obj-101",
					"maxclass" : "newobj",
					"numinlets" : 2,
					"numoutlets" : 2,
					"outlettype" : [ "", "" ],
					"patching_rect" : [ 50.0, 100.0, 69.0, 22.0 ],
					"text" : "dot.gate #2"
				}

			}
, 			{
				"box" : 				{
					"fontname" : "Arial",
					"fontsize" : 11.0,
					"id" : "obj-27",
					"maxclass" : "message",
					"numinlets" : 2,
					"numoutlets" : 1,
					"outlettype" : [ "" ],
					"patching_rect" : [ 99.399999999999977, 184.0, 48.0, 21.0 ],
					"text" : "/yaw $1"
				}

			}
, 			{
				"box" : 				{
					"id" : "obj-98",
					"maxclass" : "newobj",
					"numinlets" : 1,
					"numoutlets" : 2,
					"outlettype" : [ "", "" ],
					"patching_rect" : [ 50.0, 224.0, 72.0, 22.0 ],
					"saved_object_attributes" : 					{
						"parameter_enable" : 0
					}
,
					"text" : "spat5.rotate"
				}

			}
, 			{
				"box" : 				{
					"comment" : "",
					"id" : "obj-39",
					"index" : 1,
					"maxclass" : "inlet",
					"numinlets" : 0,
					"numoutlets" : 1,
					"outlettype" : [ "" ],
					"patching_rect" : [ 50.00001199999997, 40.0, 30.0, 30.0 ]
				}

			}
, 			{
				"box" : 				{
					"comment" : "",
					"id" : "obj-40",
					"index" : 2,
					"maxclass" : "inlet",
					"numinlets" : 0,
					"numoutlets" : 1,
					"outlettype" : [ "" ],
					"patching_rect" : [ 100.0, 40.0, 30.0, 30.0 ]
				}

			}
, 			{
				"box" : 				{
					"comment" : "",
					"id" : "obj-54",
					"index" : 1,
					"maxclass" : "outlet",
					"numinlets" : 1,
					"numoutlets" : 0,
					"patching_rect" : [ 50.00001199999997, 347.0, 30.0, 30.0 ]
				}

			}
 ],
		"lines" : [ 			{
				"patchline" : 				{
					"destination" : [ "obj-54", 0 ],
					"source" : [ "obj-1", 0 ]
				}

			}
, 			{
				"patchline" : 				{
					"destination" : [ "obj-15", 0 ],
					"source" : [ "obj-101", 0 ]
				}

			}
, 			{
				"patchline" : 				{
					"destination" : [ "obj-54", 0 ],
					"midpoints" : [ 109.5, 234.0, 59.50001199999997, 234.0 ],
					"source" : [ "obj-101", 1 ]
				}

			}
, 			{
				"patchline" : 				{
					"destination" : [ "obj-98", 0 ],
					"source" : [ "obj-15", 0 ]
				}

			}
, 			{
				"patchline" : 				{
					"destination" : [ "obj-27", 0 ],
					"midpoints" : [ 142.50001199999997, 126.5, 108.899999999999977, 126.5 ],
					"source" : [ "obj-2", 0 ]
				}

			}
, 			{
				"patchline" : 				{
					"destination" : [ "obj-27", 0 ],
					"midpoints" : [ 183.299999999999955, 160.5, 108.899999999999977, 160.5 ],
					"source" : [ "obj-20", 0 ]
				}

			}
, 			{
				"patchline" : 				{
					"destination" : [ "obj-98", 0 ],
					"midpoints" : [ 108.899999999999977, 214.0, 59.5, 214.0 ],
					"source" : [ "obj-27", 0 ]
				}

			}
, 			{
				"patchline" : 				{
					"destination" : [ "obj-101", 0 ],
					"source" : [ "obj-39", 0 ]
				}

			}
, 			{
				"patchline" : 				{
					"destination" : [ "obj-101", 1 ],
					"source" : [ "obj-40", 0 ]
				}

			}
, 			{
				"patchline" : 				{
					"destination" : [ "obj-1", 0 ],
					"midpoints" : [ 59.5, 263.0 ],
					"source" : [ "obj-98", 0 ]
				}

			}
 ]
	}

}
