{
	"patcher" : 	{
		"fileversion" : 1,
		"appversion" : 		{
			"major" : 8,
			"minor" : 1,
			"revision" : 8,
			"architecture" : "x64",
			"modernui" : 1
		}
,
		"classnamespace" : "box",
		"rect" : [ 995.0, 85.0, 890.0, 960.0 ],
		"bglocked" : 0,
		"openinpresentation" : 0,
		"default_fontsize" : 12.0,
		"default_fontface" : 0,
		"default_fontname" : "Arial",
		"gridonopen" : 1,
		"gridsize" : [ 15.0, 15.0 ],
		"gridsnaponopen" : 1,
		"objectsnaponopen" : 1,
		"statusbarvisible" : 2,
		"toolbarvisible" : 1,
		"lefttoolbarpinned" : 0,
		"toptoolbarpinned" : 0,
		"righttoolbarpinned" : 0,
		"bottomtoolbarpinned" : 0,
		"toolbars_unpinned_last_save" : 0,
		"tallnewobj" : 0,
		"boxanimatetime" : 200,
		"enablehscroll" : 1,
		"enablevscroll" : 1,
		"devicewidth" : 0.0,
		"description" : "",
		"digest" : "",
		"tags" : "",
		"style" : "",
		"subpatcher_template" : "",
		"assistshowspatchername" : 0,
		"boxes" : [ 			{
				"box" : 				{
					"id" : "obj-5",
					"maxclass" : "message",
					"numinlets" : 2,
					"numoutlets" : 1,
					"outlettype" : [ "" ],
					"patching_rect" : [ 296.12933349609375, 683.871241331100464, 55.0, 22.0 ],
					"text" : "$1 $2 $3"
				}

			}
, 			{
				"box" : 				{
					"id" : "obj-11",
					"maxclass" : "message",
					"numinlets" : 2,
					"numoutlets" : 1,
					"outlettype" : [ "" ],
					"patching_rect" : [ 542.5, 785.0, 59.0, 22.0 ],
					"text" : "voices $2"
				}

			}
, 			{
				"box" : 				{
					"id" : "obj-9",
					"maxclass" : "newobj",
					"numinlets" : 0,
					"numoutlets" : 1,
					"outlettype" : [ "" ],
					"patching_rect" : [ 542.5, 753.871241331100464, 108.0, 22.0 ],
					"text" : "r #0chans"
				}

			}
, 			{
				"box" : 				{
					"id" : "obj-45",
					"maxclass" : "comment",
					"numinlets" : 1,
					"numoutlets" : 0,
					"patching_rect" : [ 622.147047758102417, 726.0, 316.176467418670654, 20.0 ],
					"text" : "mc.sig untied to bz attribute to indicate channel on/off"
				}

			}
, 			{
				"box" : 				{
					"id" : "obj-42",
					"maxclass" : "comment",
					"numinlets" : 1,
					"numoutlets" : 0,
					"patching_rect" : [ 622.147047758102417, 826.0, 256.617645025253296, 20.0 ],
					"text" : "noteallocator to mute unused mc channels"
				}

			}
, 			{
				"box" : 				{
					"id" : "obj-38",
					"maxclass" : "newobj",
					"numinlets" : 0,
					"numoutlets" : 1,
					"outlettype" : [ "" ],
					"patching_rect" : [ 401.5, 683.871241331100464, 108.0, 22.0 ],
					"text" : "r #0chans"
				}

			}
, 			{
				"box" : 				{
					"id" : "obj-4",
					"maxclass" : "newobj",
					"numinlets" : 1,
					"numoutlets" : 1,
					"outlettype" : [ "multichannelsignal" ],
					"patching_rect" : [ 363.0, 726.0, 88.0, 22.0 ],
					"text" : "mc.sig~ @bz 0"
				}

			}
, 			{
				"box" : 				{
					"id" : "obj-12",
					"maxclass" : "newobj",
					"numinlets" : 1,
					"numoutlets" : 6,
					"outlettype" : [ "list", "list", "int", "int", "int", "int" ],
					"patching_rect" : [ 363.0, 826.0, 225.0, 22.0 ],
					"text" : "mc.noteallocator~ @direct 1 @voices #1"
				}

			}
, 			{
				"box" : 				{
					"id" : "obj-2",
					"maxclass" : "newobj",
					"numinlets" : 2,
					"numoutlets" : 2,
					"outlettype" : [ "", "" ],
					"patching_rect" : [ 47.0, 46.553447723388672, 46.0, 22.0 ],
					"text" : "route 0"
				}

			}
, 			{
				"box" : 				{
					"id" : "obj-1",
					"maxclass" : "newobj",
					"numinlets" : 1,
					"numoutlets" : 2,
					"outlettype" : [ "bang", "int" ],
					"patching_rect" : [ 74.0, 121.3465576171875, 133.5, 22.0 ],
					"text" : "t b i"
				}

			}
, 			{
				"box" : 				{
					"comment" : "chans",
					"id" : "obj-150",
					"index" : 0,
					"maxclass" : "inlet",
					"numinlets" : 0,
					"numoutlets" : 1,
					"outlettype" : [ "" ],
					"patching_rect" : [ 488.3448486328125, 0.553447723388672, 30.0, 30.0 ]
				}

			}
, 			{
				"box" : 				{
					"id" : "obj-147",
					"maxclass" : "button",
					"numinlets" : 1,
					"numoutlets" : 1,
					"outlettype" : [ "bang" ],
					"parameter_enable" : 0,
					"patching_rect" : [ 318.12933349609375, 400.0, 24.0, 24.0 ]
				}

			}
, 			{
				"box" : 				{
					"id" : "obj-145",
					"maxclass" : "newobj",
					"numinlets" : 4,
					"numoutlets" : 1,
					"outlettype" : [ "" ],
					"patching_rect" : [ 318.12933349609375, 431.310302734375, 139.0, 22.0 ],
					"text" : "pack setvalue 0 0 10000"
				}

			}
, 			{
				"box" : 				{
					"id" : "obj-144",
					"maxclass" : "message",
					"numinlets" : 2,
					"numoutlets" : 1,
					"outlettype" : [ "" ],
					"patching_rect" : [ 215.0, 339.9913330078125, 29.5, 22.0 ],
					"text" : "$4"
				}

			}
, 			{
				"box" : 				{
					"id" : "obj-142",
					"maxclass" : "newobj",
					"numinlets" : 4,
					"numoutlets" : 1,
					"outlettype" : [ "" ],
					"patching_rect" : [ 74.0, 398.735595703125, 160.0, 22.0 ],
					"text" : "pack setvalue 0 0 10000"
				}

			}
, 			{
				"box" : 				{
					"id" : "obj-141",
					"maxclass" : "message",
					"numinlets" : 2,
					"numoutlets" : 1,
					"outlettype" : [ "" ],
					"patching_rect" : [ 74.0, 335.680999755859375, 29.5, 22.0 ],
					"text" : "$2"
				}

			}
, 			{
				"box" : 				{
					"id" : "obj-137",
					"maxclass" : "newobj",
					"numinlets" : 1,
					"numoutlets" : 4,
					"outlettype" : [ "", "", "bang", "" ],
					"patching_rect" : [ 74.0, 300.335418701171875, 160.0, 22.0 ],
					"text" : "t l l b l"
				}

			}
, 			{
				"box" : 				{
					"id" : "obj-133",
					"maxclass" : "newobj",
					"numinlets" : 2,
					"numoutlets" : 2,
					"outlettype" : [ "setvalue", "int" ],
					"patching_rect" : [ 74.0, 258.620697021484375, 133.5, 22.0 ],
					"text" : "mc.target"
				}

			}
, 			{
				"box" : 				{
					"comment" : "",
					"id" : "obj-132",
					"index" : 0,
					"maxclass" : "outlet",
					"numinlets" : 1,
					"numoutlets" : 0,
					"patching_rect" : [ 122.0, 609.0, 30.0, 30.0 ]
				}

			}
, 			{
				"box" : 				{
					"id" : "obj-119",
					"maxclass" : "newobj",
					"numinlets" : 0,
					"numoutlets" : 1,
					"outlettype" : [ "" ],
					"patching_rect" : [ 16.370672225952148, 628.72418212890625, 75.0, 22.0 ],
					"text" : "r #0chans"
				}

			}
, 			{
				"box" : 				{
					"id" : "obj-117",
					"maxclass" : "newobj",
					"numinlets" : 1,
					"numoutlets" : 1,
					"outlettype" : [ "" ],
					"patching_rect" : [ 488.3448486328125, 103.3465576171875, 77.0, 22.0 ],
					"text" : "loadmess #1"
				}

			}
, 			{
				"box" : 				{
					"id" : "obj-116",
					"maxclass" : "number",
					"numinlets" : 1,
					"numoutlets" : 2,
					"outlettype" : [ "", "bang" ],
					"parameter_enable" : 0,
					"patching_rect" : [ 488.3448486328125, 148.344833374023438, 50.0, 22.0 ]
				}

			}
, 			{
				"box" : 				{
					"id" : "obj-114",
					"maxclass" : "newobj",
					"numinlets" : 0,
					"numoutlets" : 1,
					"outlettype" : [ "" ],
					"patching_rect" : [ 16.370672225952148, 470.103424072265625, 75.0, 22.0 ],
					"text" : "r #0chans"
				}

			}
, 			{
				"box" : 				{
					"id" : "obj-113",
					"maxclass" : "newobj",
					"numinlets" : 1,
					"numoutlets" : 0,
					"patching_rect" : [ 488.3448486328125, 246.620697021484375, 77.0, 22.0 ],
					"text" : "s #0chans"
				}

			}
, 			{
				"box" : 				{
					"id" : "obj-112",
					"lastchannelcount" : 1,
					"maxclass" : "mc.live.gain~",
					"numinlets" : 1,
					"numoutlets" : 4,
					"outlettype" : [ "multichannelsignal", "", "float", "list" ],
					"parameter_enable" : 1,
					"patching_rect" : [ 74.0, 795.34490966796875, 248.0, 108.0 ],
					"saved_attribute_attributes" : 					{
						"valueof" : 						{
							"parameter_initial" : [ 0.0 ],
							"parameter_longname" : "mc.live.gain~[1]",
							"parameter_mmax" : 6.0,
							"parameter_mmin" : -70.0,
							"parameter_shortname" : "mc.live.gain~",
							"parameter_type" : 0,
							"parameter_unitstyle" : 4
						}

					}
,
					"varname" : "mc.live.gain~[1]"
				}

			}
, 			{
				"box" : 				{
					"id" : "obj-111",
					"maxclass" : "newobj",
					"numinlets" : 2,
					"numoutlets" : 3,
					"outlettype" : [ "multichannelsignal", "", "" ],
					"patching_rect" : [ 74.0, 506.965484619140625, 67.0, 22.0 ],
					"text" : "mc.line~ 0."
				}

			}
, 			{
				"box" : 				{
					"id" : "obj-110",
					"maxclass" : "message",
					"numinlets" : 2,
					"numoutlets" : 1,
					"outlettype" : [ "" ],
					"patching_rect" : [ 237.30169677734375, 435.748504638671875, 29.5, 22.0 ],
					"text" : "0.5"
				}

			}
, 			{
				"box" : 				{
					"id" : "obj-108",
					"maxclass" : "newobj",
					"numinlets" : 2,
					"numoutlets" : 1,
					"outlettype" : [ "multichannelsignal" ],
					"patching_rect" : [ 74.0, 558.09161376953125, 90.896492004394531, 22.0 ],
					"text" : "mc.*~"
				}

			}
, 			{
				"box" : 				{
					"id" : "obj-106",
					"maxclass" : "newobj",
					"numinlets" : 1,
					"numoutlets" : 1,
					"outlettype" : [ "signal" ],
					"patching_rect" : [ 145.896484375, 506.965484619140625, 31.0, 22.0 ],
					"text" : "sig~"
				}

			}
, 			{
				"box" : 				{
					"id" : "obj-105",
					"maxclass" : "newobj",
					"numinlets" : 1,
					"numoutlets" : 2,
					"outlettype" : [ "list", "list" ],
					"patching_rect" : [ 237.30169677734375, 466.2535400390625, 29.5, 22.0 ],
					"text" : "pi"
				}

			}
, 			{
				"box" : 				{
					"id" : "obj-103",
					"maxclass" : "newobj",
					"numinlets" : 1,
					"numoutlets" : 1,
					"outlettype" : [ "bang" ],
					"patching_rect" : [ 237.30169677734375, 398.735595703125, 58.0, 22.0 ],
					"text" : "loadbang"
				}

			}
, 			{
				"box" : 				{
					"id" : "obj-100",
					"maxclass" : "message",
					"numinlets" : 2,
					"numoutlets" : 1,
					"outlettype" : [ "" ],
					"patching_rect" : [ 488.3448486328125, 191.549697875976563, 57.0, 22.0 ],
					"text" : "chans $1"
				}

			}
, 			{
				"box" : 				{
					"id" : "obj-96",
					"maxclass" : "newobj",
					"numinlets" : 1,
					"numoutlets" : 1,
					"outlettype" : [ "multichannelsignal" ],
					"patching_rect" : [ 74.0, 665.4483642578125, 56.0, 22.0 ],
					"text" : "mc.sinx~"
				}

			}
, 			{
				"box" : 				{
					"comment" : "channel target / 0 to fade out",
					"id" : "obj-90",
					"index" : 0,
					"maxclass" : "inlet",
					"numinlets" : 0,
					"numoutlets" : 1,
					"outlettype" : [ "" ],
					"patching_rect" : [ 47.0, 0.553447723388672, 30.0, 30.0 ]
				}

			}
, 			{
				"box" : 				{
					"comment" : "",
					"id" : "obj-85",
					"index" : 0,
					"maxclass" : "outlet",
					"numinlets" : 1,
					"numoutlets" : 0,
					"patching_rect" : [ 74.0, 927.75860595703125, 30.0, 30.0 ]
				}

			}
, 			{
				"box" : 				{
					"comment" : "xfade time",
					"id" : "obj-84",
					"index" : 0,
					"maxclass" : "inlet",
					"numinlets" : 0,
					"numoutlets" : 1,
					"outlettype" : [ "" ],
					"patching_rect" : [ 106.0, 0.553447723388672, 30.0, 30.0 ]
				}

			}
, 			{
				"box" : 				{
					"id" : "obj-82",
					"maxclass" : "message",
					"numinlets" : 2,
					"numoutlets" : 1,
					"outlettype" : [ "" ],
					"patching_rect" : [ 74.0, 171.411758422851563, 51.0, 22.0 ],
					"text" : "10000"
				}

			}
, 			{
				"box" : 				{
					"id" : "obj-76",
					"maxclass" : "newobj",
					"numinlets" : 1,
					"numoutlets" : 1,
					"outlettype" : [ "" ],
					"patching_rect" : [ 74.0, 208.825881958007813, 63.0, 22.0 ],
					"text" : "prepend 1"
				}

			}
 ],
		"lines" : [ 			{
				"patchline" : 				{
					"destination" : [ "obj-133", 1 ],
					"source" : [ "obj-1", 1 ]
				}

			}
, 			{
				"patchline" : 				{
					"destination" : [ "obj-82", 0 ],
					"midpoints" : [ 83.5, 140.379158020019531, 83.5, 140.379158020019531 ],
					"source" : [ "obj-1", 0 ]
				}

			}
, 			{
				"patchline" : 				{
					"destination" : [ "obj-113", 0 ],
					"source" : [ "obj-100", 0 ]
				}

			}
, 			{
				"patchline" : 				{
					"destination" : [ "obj-110", 0 ],
					"source" : [ "obj-103", 0 ]
				}

			}
, 			{
				"patchline" : 				{
					"destination" : [ "obj-106", 0 ],
					"midpoints" : [ 246.80169677734375, 497.109512329101563, 155.396484375, 497.109512329101563 ],
					"source" : [ "obj-105", 0 ]
				}

			}
, 			{
				"patchline" : 				{
					"destination" : [ "obj-108", 1 ],
					"source" : [ "obj-106", 0 ]
				}

			}
, 			{
				"patchline" : 				{
					"destination" : [ "obj-96", 0 ],
					"source" : [ "obj-108", 0 ]
				}

			}
, 			{
				"patchline" : 				{
					"destination" : [ "obj-12", 0 ],
					"midpoints" : [ 552.0, 816.0, 372.5, 816.0 ],
					"source" : [ "obj-11", 0 ]
				}

			}
, 			{
				"patchline" : 				{
					"destination" : [ "obj-105", 0 ],
					"source" : [ "obj-110", 0 ]
				}

			}
, 			{
				"patchline" : 				{
					"destination" : [ "obj-108", 0 ],
					"source" : [ "obj-111", 0 ]
				}

			}
, 			{
				"patchline" : 				{
					"destination" : [ "obj-132", 0 ],
					"source" : [ "obj-111", 2 ]
				}

			}
, 			{
				"patchline" : 				{
					"destination" : [ "obj-85", 0 ],
					"source" : [ "obj-112", 0 ]
				}

			}
, 			{
				"patchline" : 				{
					"destination" : [ "obj-111", 0 ],
					"midpoints" : [ 25.870672225952148, 499.034454345703125, 83.5, 499.034454345703125 ],
					"source" : [ "obj-114", 0 ]
				}

			}
, 			{
				"patchline" : 				{
					"destination" : [ "obj-100", 0 ],
					"source" : [ "obj-116", 0 ]
				}

			}
, 			{
				"patchline" : 				{
					"destination" : [ "obj-116", 0 ],
					"source" : [ "obj-117", 0 ]
				}

			}
, 			{
				"patchline" : 				{
					"destination" : [ "obj-96", 0 ],
					"midpoints" : [ 25.870672225952148, 657.586273193359375, 83.5, 657.586273193359375 ],
					"source" : [ "obj-119", 0 ]
				}

			}
, 			{
				"patchline" : 				{
					"destination" : [ "obj-137", 0 ],
					"source" : [ "obj-133", 0 ]
				}

			}
, 			{
				"patchline" : 				{
					"destination" : [ "obj-111", 0 ],
					"midpoints" : [ 130.5, 445.15045166015625, 83.5, 445.15045166015625 ],
					"source" : [ "obj-137", 1 ]
				}

			}
, 			{
				"patchline" : 				{
					"destination" : [ "obj-141", 0 ],
					"source" : [ "obj-137", 0 ]
				}

			}
, 			{
				"patchline" : 				{
					"destination" : [ "obj-142", 0 ],
					"midpoints" : [ 177.5, 368.38751220703125, 83.5, 368.38751220703125 ],
					"source" : [ "obj-137", 2 ]
				}

			}
, 			{
				"patchline" : 				{
					"destination" : [ "obj-144", 0 ],
					"order" : 1,
					"source" : [ "obj-137", 3 ]
				}

			}
, 			{
				"patchline" : 				{
					"destination" : [ "obj-5", 0 ],
					"midpoints" : [ 224.5, 335.603330016136169, 305.62933349609375, 335.603330016136169 ],
					"order" : 0,
					"source" : [ "obj-137", 3 ]
				}

			}
, 			{
				"patchline" : 				{
					"destination" : [ "obj-142", 1 ],
					"midpoints" : [ 83.5, 376.060302734375, 130.5, 376.060302734375 ],
					"source" : [ "obj-141", 0 ]
				}

			}
, 			{
				"patchline" : 				{
					"destination" : [ "obj-111", 0 ],
					"order" : 1,
					"source" : [ "obj-142", 0 ]
				}

			}
, 			{
				"patchline" : 				{
					"destination" : [ "obj-5", 0 ],
					"midpoints" : [ 83.5, 551.803418517112732, 305.62933349609375, 551.803418517112732 ],
					"order" : 0,
					"source" : [ "obj-142", 0 ]
				}

			}
, 			{
				"patchline" : 				{
					"destination" : [ "obj-142", 3 ],
					"source" : [ "obj-144", 0 ]
				}

			}
, 			{
				"patchline" : 				{
					"destination" : [ "obj-111", 0 ],
					"midpoints" : [ 327.62933349609375, 497.637893676757813, 83.5, 497.637893676757813 ],
					"order" : 1,
					"source" : [ "obj-145", 0 ]
				}

			}
, 			{
				"patchline" : 				{
					"destination" : [ "obj-5", 0 ],
					"midpoints" : [ 327.62933349609375, 568.090772032737732, 305.62933349609375, 568.090772032737732 ],
					"order" : 0,
					"source" : [ "obj-145", 0 ]
				}

			}
, 			{
				"patchline" : 				{
					"destination" : [ "obj-145", 0 ],
					"source" : [ "obj-147", 0 ]
				}

			}
, 			{
				"patchline" : 				{
					"destination" : [ "obj-116", 0 ],
					"source" : [ "obj-150", 0 ]
				}

			}
, 			{
				"patchline" : 				{
					"destination" : [ "obj-1", 0 ],
					"source" : [ "obj-2", 1 ]
				}

			}
, 			{
				"patchline" : 				{
					"destination" : [ "obj-147", 0 ],
					"midpoints" : [ 56.5, 81.776723861694336, 327.62933349609375, 81.776723861694336 ],
					"source" : [ "obj-2", 0 ]
				}

			}
, 			{
				"patchline" : 				{
					"destination" : [ "obj-4", 0 ],
					"midpoints" : [ 411.0, 715.435620665550232, 372.5, 715.435620665550232 ],
					"source" : [ "obj-38", 0 ]
				}

			}
, 			{
				"patchline" : 				{
					"destination" : [ "obj-12", 0 ],
					"source" : [ "obj-4", 0 ]
				}

			}
, 			{
				"patchline" : 				{
					"destination" : [ "obj-4", 0 ],
					"midpoints" : [ 305.62933349609375, 715.435620665550232, 372.5, 715.435620665550232 ],
					"source" : [ "obj-5", 0 ]
				}

			}
, 			{
				"patchline" : 				{
					"destination" : [ "obj-133", 0 ],
					"source" : [ "obj-76", 0 ]
				}

			}
, 			{
				"patchline" : 				{
					"destination" : [ "obj-76", 0 ],
					"source" : [ "obj-82", 0 ]
				}

			}
, 			{
				"patchline" : 				{
					"destination" : [ "obj-145", 3 ],
					"midpoints" : [ 115.5, 60.758596420288086, 447.62933349609375, 60.758596420288086 ],
					"order" : 0,
					"source" : [ "obj-84", 0 ]
				}

			}
, 			{
				"patchline" : 				{
					"destination" : [ "obj-82", 1 ],
					"order" : 1,
					"source" : [ "obj-84", 0 ]
				}

			}
, 			{
				"patchline" : 				{
					"destination" : [ "obj-11", 0 ],
					"source" : [ "obj-9", 0 ]
				}

			}
, 			{
				"patchline" : 				{
					"destination" : [ "obj-2", 0 ],
					"source" : [ "obj-90", 0 ]
				}

			}
, 			{
				"patchline" : 				{
					"destination" : [ "obj-112", 0 ],
					"order" : 1,
					"source" : [ "obj-96", 0 ]
				}

			}
, 			{
				"patchline" : 				{
					"destination" : [ "obj-12", 0 ],
					"midpoints" : [ 83.5, 756.22418212890625, 372.5, 756.22418212890625 ],
					"order" : 0,
					"source" : [ "obj-96", 0 ]
				}

			}
 ],
		"parameters" : 		{
			"obj-112" : [ "mc.live.gain~[1]", "mc.live.gain~", 0 ],
			"parameterbanks" : 			{

			}
,
			"inherited_shortname" : 1
		}
,
		"dependency_cache" : [ 			{
				"name" : "pi_constant.mxe64",
				"type" : "mx64"
			}
 ],
		"autosave" : 0
	}

}
